<svg className="icon" viewBox="0 0 1024 1024" xmlns="http://www.w3.org/2000/svg" width="39" height="39">
                  <path d="M878.3 721.7c-1.35 3.6-18.9 65.25-62.1 128.25-37.8 54.9-76.5 109.8-137.7 110.7-60.3.9-79.65-36-148.5-36s-90.45 35.1-147.6 36.9c-58.95 2.25-104.4-59.85-142.2-114.3C163.25 736.55 103.85 531.8 183.5 395c39.15-68.4 109.8-112.05 186.3-113.4 57.6-.9 112.95 39.15 148.05 39.15 36 0 102.6-48.6 172.8-41.4 29.25 1.35 111.6 12.15 164.25 89.1-4.05 2.7-98.1 58.5-97.2 171.45.9 136.35 119.25 181.35 120.6 181.8m-234-515.25c31.5-38.7 52.65-91.8 46.8-144.45-45 1.8-100.35 30.15-132.75 68.4-28.8 33.3-54.45 87.3-47.25 139.5 49.95 2.7 101.7-26.55 133.2-63.45" fill="#fff"></path>
                </svg>