<svg className="icon" viewBox="0 0 1024 1024" xmlns="http://www.w3.org/2000/svg" width="39" height="39">
                  <path d="M944.9 471.64a141.947 141.947 0 0 0-105.047-9.506 139.64 139.64 0 0 0-56.784-88.959l-11.25-8.86-9.535 10.688a117.675 117.675 0 0 0-22.218 84.656 108.59 108.59 0 0 0 21.206 56.87 164.925 164.925 0 0 1-30.544 13.443 204.272 204.272 0 0 1-62.972 10.153H73.925l-1.266 13.303a248.428 248.428 0 0 0 20.897 129.375l8.128 16.116.928 1.519c55.829 92.193 167.204 139.95 274.05 139.95 206.888 0 364.191-98.747 442.575-288.479 52.37 2.672 105.947-12.403 131.57-61.003l6.524-12.403-12.431-6.975zM246.978 711.689a46.434 46.434 0 1 1 47.813-46.435 47.166 47.166 0 0 1-47.813 46.434z" fill="#1296db"></path>
                  <path d="M246.978 640.7a24.44 24.44 0 1 0 25.144 24.469 24.806 24.806 0 0 0-25.144-24.469M118.25 427.625h84.375V512H118.25zm112.5 0h84.375V512H230.75zm0-112.5h84.375V399.5H230.75zm112.5 0h84.375V399.5H343.25zm0 112.5h84.375V512H343.25zm112.5 0h84.375V512H455.75zm112.5 0h84.375V512H568.25zm-112.5-112.5h84.375V399.5H455.75zm0-112.5h84.375V287H455.75z" fill="#1296db"></path>
                </svg>