<svg className="icon" viewBox="0 0 1024 1024" xmlns="http://www.w3.org/2000/svg" width="39" height="39">
                  <path d="M524.375 217.906c-8.063 5.25-14.25 12.938-17.719 21.938-3.562 11.625-3 24 1.406 35.344A59.437 59.437 0 0 0 528.875 305a37.347 37.347 0 0 0 17.063 6.563c6.187.75 12.375-.282 17.906-3.094a35.218 35.218 0 0 0 14.906-16.219c3-6.938 4.688-14.344 4.875-21.844a73.847 73.847 0 0 0-3.563-28.219c-3.28-9.937-9.656-18.468-18.28-24.28-4.407-2.813-9.282-4.688-14.438-5.438a30.339 30.339 0 0 0-15.282 1.687 41.666 41.666 0 0 0-7.78 4.219" fill="#FFF"></path>
                  <path d="M791.563 600.594a395.632 395.632 0 0 0-22.313-77.438c-6.844-18.562-16.125-36.187-27.656-52.312-11.625-15.469-26.344-28.5-37.688-44.156-6-8.157-11.062-17.25-17.343-25.22-2.532-5.25-4.97-10.5-7.407-15.75-7.5-16.406-14.343-33.187-23.25-48.75-1.406-2.437-2.906-4.874-4.312-7.218-1.125-15-2.719-30-3.563-45a425.74 425.74 0 0 0-7.593-89.906c-3.938-14.156-9.938-27.75-17.813-40.125-9.188-14.625-21-27.375-34.875-37.594a134.301 134.301 0 0 0-77.25-24.75c-20.344-.469-40.5 4.125-58.594 13.5-19.031 10.406-34.406 26.438-44.062 45.844a153.998 153.998 0 0 0-14.063 62.344c-.75 21.187 1.219 42.187 2.063 63.375.844 21.937.375 43.968 2.156 65.906.563 7.031 1.406 14.062 1.406 21.187 0 3.563-.187 7.125-.281 10.594l-.281.75a450.215 450.215 0 0 1-31.688 46.781c-8.062 10.219-16.125 20.344-24.281 30.375-10.594 11.906-19.594 25.125-26.719 39.375-4.781 12.375-8.625 25.125-11.625 38.063l-.281 1.031a296.022 296.022 0 0 1-16.875 43.313 142.935 142.935 0 0 0-1.875 3.937c-4.031 8.344-8.25 16.688-12.656 24.844l-5.063 9.468a159.66 159.66 0 0 0-8.437 17.625c-1.406 3.657-2.531 7.407-3.188 11.25-1.219 8.157-.656 16.407 1.5 24.282.469 1.968 1.125 3.937 1.781 5.906 2.063 5.813 4.5 11.531 7.407 16.969 1.312 2.531 2.719 4.968 4.031 7.5l1.219 1.781a169.016 169.016 0 0 0 4.125 6.938l.187.28c1.594 2.626 3.375 5.157 5.063 7.688l.281.375c1.781 2.438 3.563 4.969 5.438 7.407 6.937 27.093 19.687 52.312 37.218 74.062-2.719 4.781-5.156 9.469-7.875 14.156A216.887 216.887 0 0 0 293 853.72c-2.531 8.062-3.188 16.593-1.781 24.937 1.312 8.438 5.625 16.032 12.187 21.563 4.406 3.375 9.469 5.718 14.813 6.843 5.344 1.125 10.875 1.688 16.406 1.407 20.813-1.594 41.438-5.719 61.313-12.094 12-3.188 24-6 36.187-8.438 12.656-2.906 25.5-4.687 38.438-5.25 3.187.094 6.375-.093 9.468-.28 8.813.937 17.625 1.312 26.531.937l3.282-.188c2.25.282 4.594.375 6.937.563a480.306 480.306 0 0 1 46.407 4.781c13.5 2.063 27 4.688 40.312 7.969 20.531 6.187 41.625 10.312 63.094 12.093 5.625.282 11.25-.187 16.875-1.312 5.531-1.125 10.781-3.563 15.281-6.938 6.563-5.437 10.875-13.03 12.281-21.468 1.407-8.344.75-16.875-1.781-24.938-6.188-15.656-14.156-30.562-23.906-44.343-3.375-5.72-6.563-11.625-9.938-17.344a307.557 307.557 0 0 0 38.157-52.969c6.562.375 13.03-.375 19.312-2.438a81.136 81.136 0 0 0 40.594-30.468c3-4.219 5.343-8.907 6.75-13.875a89.449 89.449 0 0 0 12.937-33.094c3-19.5 2.532-39.469-1.406-58.781h-.188zm0 0" fill="#020204"></path>
                  <path d="M431 335a32.58 32.58 0 0 0-6 12.75c-1.031 4.594-1.688 9.375-1.781 14.063.281 9.468-.469 18.937-2.344 28.218-3.281 9.656-8.25 18.563-14.625 26.531-10.969 13.782-19.594 29.25-25.5 45.75-3 10.22-4.031 20.907-2.906 31.594a337.236 337.236 0 0 0-29.344 53.156c-12.563 28.032-20.625 57.938-23.906 88.5-4.031 37.594 1.5 75.563 15.937 110.438a182.552 182.552 0 0 0 47.156 65.719c10.5 9.093 22.032 16.781 34.407 22.875 43.781 21.375 95.062 20.906 138.375-1.313a267.942 267.942 0 0 0 58.687-46.406c11.157-10.125 21.094-21.469 29.813-33.844 14.531-25.218 23.062-53.531 24.843-82.593 9-50.25 3.47-102-15.843-149.25-7.594-15.75-17.625-30.188-29.813-42.75a236.719 236.719 0 0 0-18.937-63.75c-6.75-14.532-14.907-28.407-21.188-43.313-2.531-6.094-4.781-12.281-7.593-18.188-2.72-6-6.47-11.53-11.063-16.218-4.969-4.594-10.875-8.063-17.344-10.031a71.82 71.82 0 0 0-19.875-3.375c-13.5-.657-27.093 1.03-40.406.562-10.781-.469-21.375-2.344-32.156-1.688-5.344.282-10.688 1.313-15.656 3.282A31.379 31.379 0 0 0 431 335.094m4.313-117.281c-5.063.375-9.844 2.53-13.5 6-3.657 3.468-6.375 7.875-7.875 12.656-2.532 9.75-3.188 19.969-1.782 30 .188 9.094 1.781 18.187 4.781 26.812 1.688 4.219 4.125 8.156 7.313 11.438 3.188 3.281 7.219 5.719 11.625 6.844a23.2 23.2 0 0 0 12.656-.47c4.031-1.312 7.781-3.562 10.781-6.562 4.407-4.5 7.594-10.031 9.188-16.031a64.942 64.942 0 0 0 2.156-18.563c0-7.78-1.219-15.562-3.562-23.062s-6.375-14.344-11.813-20.063c-2.625-2.718-5.625-5.062-9-6.75-3.469-1.593-7.219-2.437-10.969-2.25m89.063 0c-8.063 5.25-14.25 12.938-17.719 21.938-3.562 11.625-3 24 1.406 35.344a59.437 59.437 0 0 0 20.813 29.812 37.347 37.347 0 0 0 17.063 6.563c6.187.75 12.375-.281 17.906-3.094a35.218 35.218 0 0 0 14.906-16.219c3-6.937 4.688-14.344 4.875-21.844a73.847 73.847 0 0 0-3.563-28.218c-3.28-9.938-9.656-18.469-18.28-24.281-4.407-2.813-9.282-4.688-14.438-5.438a30.339 30.339 0 0 0-15.282 1.688 41.666 41.666 0 0 0-7.78 4.218" fill="#FFF"></path>
                  <path d="M542.469 241.625c-3 .188-5.813 1.125-8.344 2.719s-4.688 3.75-6.375 6.187a32.028 32.028 0 0 0-5.063 16.781c-.28 4.407.375 8.907 1.782 13.125s4.031 7.97 7.406 10.782a21.713 21.713 0 0 0 12.469 4.875c4.593.187 9.093-1.031 12.843-3.656 3-2.157 5.438-4.875 7.125-8.157 1.688-3.187 2.72-6.75 3.188-10.312.938-6.375-.188-12.938-3-18.656-2.906-5.813-7.875-10.22-13.875-12.563-2.625-1.031-5.344-1.406-8.156-1.313" fill="#020204"></path>
                  <path d="M435.313 217.906c-5.063.375-9.844 2.531-13.5 6-3.657 3.469-6.375 7.875-7.875 12.656-2.532 9.75-3.188 19.97-1.782 30 .188 9.094 1.781 18.188 4.781 26.813 1.688 4.313 4.125 8.156 7.313 11.438 3.188 3.28 7.219 5.718 11.625 6.843a23.2 23.2 0 0 0 12.656-.469c4.031-1.312 7.781-3.562 10.781-6.562 4.407-4.5 7.594-10.031 9.188-16.031a64.942 64.942 0 0 0 2.156-18.563c0-7.781-1.219-15.562-3.562-23.062s-6.375-14.344-11.813-20.063c-2.625-2.719-5.625-5.062-9-6.75-3.469-1.594-7.219-2.437-10.969-2.25" fill="#FFF"></path>
                  <path d="M423.219 259.625c-1.219 6.281-.938 12.844 1.031 18.938 1.5 4.03 3.75 7.687 6.75 10.78 1.875 2.063 4.031 3.844 6.563 5.063 2.53 1.313 5.343 1.688 8.156 1.031 2.531-.656 4.687-2.156 6.281-4.218 1.594-2.063 2.719-4.406 3.469-6.844 2.156-7.313 1.969-15.094-.375-22.406-1.5-5.344-4.406-10.219-8.531-13.875-1.97-1.688-4.407-3-6.938-3.656-2.625-.657-5.344-.47-7.875.656a13.685 13.685 0 0 0-6.094 6.094 26.075 26.075 0 0 0-2.531 8.343" fill="#020204"></path>
                  <path d="M411.313 338.469c.187.844.468 1.687.937 2.344a10.342 10.342 0 0 0 3.188 3.187c1.218.844 2.437 1.594 3.656 2.344 6.469 4.406 12.187 9.844 16.781 16.219C441.5 371.375 448.531 379.25 456.5 386c6.094 4.219 13.219 6.75 20.625 7.406 8.625.656 17.344-.375 25.688-3 7.687-2.25 15.093-5.437 22.03-9.656 11.907-9.563 24.657-18 38.157-25.031 3.188-1.125 6.375-1.969 9.375-3.375 3.094-1.313 5.719-3.563 7.313-6.563 1.03-3 1.687-6.187 1.78-9.375.47-3.375 1.595-6.656 2.157-10.031.75-3.375.469-6.844-.75-10.125a13.816 13.816 0 0 0-5.906-5.906c-2.532-1.219-5.344-1.969-8.157-2.063-5.718.188-11.343.75-16.875 1.688-7.5.656-15-.281-22.5 0-9.28.281-18.562 2.344-27.937 2.719-10.688.562-21.281-1.125-31.969-1.594-4.594-.281-9.281-.094-13.875.656-4.594.656-9 2.344-12.844 4.969-3.562 2.812-6.843 5.812-10.03 9a27.829 27.829 0 0 1-5.532 3.844c-2.063 1.03-4.219 1.593-6.563 1.5a10.766 10.766 0 0 0-3.468 0c-.656.28-1.313.656-1.781 1.125l-1.407 1.687c-.937 1.406-1.781 2.906-2.437 4.406" fill="#D99A03"></path>
                  <path d="M434.844 314.844c-3.75 2.25-7.406 4.687-11.063 7.219a14.568 14.568 0 0 0-4.781 4.78 10.16 10.16 0 0 0-.844 4.688 40.676 40.676 0 0 1 0 4.781c-.094 1.032-.469 2.157-.469 3.282 0 .562 0 1.125.188 1.594.188.562.375 1.03.75 1.406.469.469 1.125.844 1.875 1.031.656.188 1.406.281 2.156.469 3.281.937 6.281 2.719 8.719 5.062 2.531 2.25 4.781 4.875 7.5 7.031 7.5 5.625 16.594 8.532 25.875 8.438 9.281-.188 18.469-1.5 27.375-3.844 7.031-1.5 13.969-3.375 20.719-5.719 10.5-3.937 20.156-9.656 28.5-17.062a94.798 94.798 0 0 1 11.625-9.656c3.75-2.344 8.156-3.938 11.906-6.188.375-.187.656-.469 1.031-.656.282-.281.563-.563.75-.938a2.626 2.626 0 0 0 0-2.062c-.187-.656-.468-1.219-.843-1.688a12.797 12.797 0 0 0-1.594-1.593 26.443 26.443 0 0 0-14.813-5.156c-5.437-.375-10.593 0-15.843-1.032-4.875-1.031-9.657-2.437-14.344-4.125a103.68 103.68 0 0 0-15.282-3.656c-12.187-1.969-24.562-1.688-36.656.938-11.344 2.53-22.312 6.843-32.437 12.656" fill="#604405"></path>
                  <path d="M433.625 302.094c-5.438 3.656-10.313 8.156-14.531 13.219a31.347 31.347 0 0 0-5.719 9.656c-.844 2.812-1.406 5.719-1.875 8.625-.281 1.031-.469 2.156-.469 3.281 0 .563.094 1.125.281 1.594a3.53 3.53 0 0 0 .844 1.406c.656.656 1.5 1.031 2.438 1.219.844.187 1.781.187 2.719.281 4.125.656 7.968 2.344 11.343 4.781 3.375 2.344 6.563 5.063 10.031 7.313 7.875 4.687 16.875 7.219 26.063 7.406 9.188.188 18.281-.75 27.188-2.719a118.662 118.662 0 0 0 21-5.906 125.554 125.554 0 0 0 28.5-17.063c4.03-3 7.968-6.187 11.625-9.656 1.218-1.219 2.437-2.437 3.75-3.562a13.827 13.827 0 0 1 4.406-2.531c2.531-.657 5.156-.75 7.781-.094 1.875.469 3.844.656 5.813.656 1.03 0 1.968-.188 2.906-.469.937-.375 1.781-.937 2.343-1.687.844-1.031 1.22-2.25 1.22-3.563s-.376-2.531-1.032-3.656c-1.406-2.156-3.563-3.844-5.906-4.781-3.282-1.313-6.657-2.344-10.125-3a142.883 142.883 0 0 1-30.657-11.156c-4.875-2.438-9.468-5.063-14.343-7.594-4.875-2.719-9.938-5.063-15.188-6.75-12.094-3.281-24.937-2.719-36.656 1.687-13.125 4.594-24.844 12.563-33.844 23.156" fill="#F5BD0C"></path>
                  <path d="M494.656 287.188c.656 2.156 4.031 1.78 6 2.718 1.969.938 3.094 2.719 4.969 2.906 1.969.188 4.688-.656 4.969-2.437.375-2.438-3.188-3.938-5.438-4.781-3-1.406-6.375-1.5-9.375-.188-.656.281-1.312 1.125-1.125 1.781zm-32.25-1.125c-2.531-.844-6.656 3.562-5.437 5.906.375.656 1.5 1.406 2.25 1.031s2.156-2.906 3.375-3.75c.937-.75.75-2.906-.188-3.188zm0 0" fill="#CD8907"></path>
                  <path d="M864.219 809.938c-1.875 4.875-4.594 9.375-7.969 13.406-7.875 8.437-17.438 15.187-27.938 19.875-17.812 8.25-35.156 17.437-52.03 27.468a215.954 215.954 0 0 0-30.657 24.75c-7.781 8.157-16.125 15.657-24.938 22.688-9.187 6.75-19.78 11.344-31.03 13.125-13.782 1.781-27.75-.375-40.407-6.094-9.094-3.468-16.969-9.562-22.5-17.625-4.688-8.625-6.844-18.281-6.375-28.031a293.704 293.704 0 0 1 6.188-51.094c2.437-14.062 4.875-28.125 6.375-42.281 2.625-25.875 2.906-51.844.937-77.719a60.554 60.554 0 0 1 0-13.031c.563-8.813 7.969-15.563 16.875-15.469 4.031-.093 8.063.282 12 1.032 9.375 1.125 18.75 2.718 27.938 4.875 5.718 1.5 11.437 3.562 17.156 5.156 9.562 2.812 19.687 3.656 29.625 2.718 10.406-2.437 21-4.03 31.687-4.968 4.407.187 8.813.937 12.938 2.25 4.312 1.218 8.343 3.375 11.625 6.468 2.343 2.532 4.218 5.438 5.437 8.625 1.782 4.782 2.907 9.75 3.282 14.813.187 4.5.562 9 1.125 13.5 1.593 7.219 5.062 13.969 9.937 19.594 4.969 5.437 10.313 10.5 16.125 15a173.108 173.108 0 0 0 17.438 13.5c2.906 1.968 5.812 3.75 8.53 5.906 2.813 2.063 5.157 4.688 6.938 7.688 2.25 4.125 3 8.906 1.875 13.5" fill="#F5BD0C"></path>
                  <path d="M864.219 809.938c-1.875 4.875-4.594 9.375-7.969 13.406-7.875 8.437-17.438 15.187-27.938 19.875-17.812 8.25-35.156 17.437-52.03 27.468a215.954 215.954 0 0 0-30.657 24.75c-7.781 8.157-16.125 15.657-24.938 22.688-9.187 6.75-19.78 11.344-31.03 13.125-13.782 1.781-27.75-.375-40.407-6.094-9.094-3.468-16.969-9.562-22.5-17.625-4.688-8.625-6.844-18.281-6.375-28.031a293.704 293.704 0 0 1 6.188-51.094c2.437-14.062 4.875-28.125 6.375-42.281 2.625-25.875 2.906-51.844.937-77.719a60.554 60.554 0 0 1 0-13.031c.563-8.813 7.969-15.563 16.875-15.469 4.031-.093 8.063.282 12 1.032 9.375 1.125 18.75 2.718 27.938 4.875 5.718 1.5 11.437 3.562 17.156 5.156 9.562 2.812 19.687 3.656 29.625 2.718 10.406-2.437 21-4.03 31.687-4.968 4.407.187 8.813.937 12.938 2.25 4.312 1.218 8.343 3.375 11.625 6.468 2.343 2.532 4.218 5.438 5.437 8.625 1.782 4.782 2.907 9.75 3.282 14.813.187 4.5.562 9 1.125 13.5 1.593 7.219 5.062 13.969 9.937 19.594 4.969 5.437 10.313 10.5 16.125 15a173.108 173.108 0 0 0 17.438 13.5c2.906 1.968 5.812 3.75 8.53 5.906 2.813 2.063 5.157 4.688 6.938 7.688 2.25 4.125 3 8.906 1.875 13.5M275.188 666.03a26.145 26.145 0 0 1 14.437-1.312 35.242 35.242 0 0 1 13.5 5.718c7.781 5.907 14.531 13.22 19.875 21.375 13.219 18.188 25.875 36.75 37.406 56.063 9.375 15.656 17.906 31.781 28.688 46.5 7.031 9.563 15 18.469 22.125 28.031 7.406 9.375 13.031 20.063 16.5 31.407 4.125 15.093 2.437 31.125-4.594 45.093-5.063 9.75-12.656 17.907-21.938 23.532-9.375 5.625-20.156 8.437-31.125 8.156-17.25-2.344-33.937-7.594-49.312-15.563-32.719-13.031-68.25-17.156-102-27.281-10.406-3.094-20.531-6.844-31.031-9.656-4.688-1.125-9.281-2.532-13.781-4.407-4.407-1.875-8.25-5.062-10.782-9.093a20.743 20.743 0 0 1-2.719-10.782c.094-3.75.844-7.406 2.157-10.78 2.531-7.032 6.656-13.313 9.375-20.25a84.632 84.632 0 0 0 4.687-35.813c-.562-12.094-2.719-24.188-3.375-36.282a58.715 58.715 0 0 1 .563-16.218c1.406-10.688 9.75-19.219 20.531-20.813 4.969-.843 9.938-1.218 14.906-.937 4.969.281 10.031.281 15 0 4.969-.282 9.938-1.688 14.344-4.032 4.031-2.437 7.594-5.812 10.313-9.75a124.125 124.125 0 0 0 7.406-12.187c2.25-4.219 4.781-8.156 7.781-11.906 2.813-3.844 6.656-6.75 11.063-8.813" fill="#F5BD0C"></path>
                  <path d="M275.188 666.125a26.145 26.145 0 0 1 14.437-1.313 35.242 35.242 0 0 1 13.5 5.72c7.781 5.905 14.531 13.218 19.875 21.374 13.219 18.188 25.875 36.75 37.406 56.063 9.375 15.656 17.906 31.781 28.688 46.5 7.031 9.562 15 18.468 22.125 28.031 7.406 9.375 13.031 20.063 16.5 31.406 4.125 15.094 2.437 31.125-4.594 45.094-5.063 9.75-12.656 17.906-21.938 23.531-9.375 5.625-20.156 8.438-31.125 8.157-17.25-2.344-33.937-7.594-49.312-15.563-32.719-13.031-68.25-17.156-102-27.281-10.406-3.094-20.531-6.844-31.031-9.657-4.688-1.125-9.281-2.53-13.781-4.406-4.407-1.875-8.25-5.062-10.782-9.093a20.743 20.743 0 0 1-2.719-10.782c.094-3.75.844-7.406 2.157-10.781 2.531-7.031 6.656-13.313 9.375-20.25a84.632 84.632 0 0 0 4.687-35.813c-.562-12.093-2.719-24.093-3.375-36.28a58.715 58.715 0 0 1 .563-16.22c1.406-10.687 9.75-19.218 20.531-20.812 4.969-.844 9.938-1.219 14.906-.938 4.969.282 10.031.282 15 0 4.969-.28 9.938-1.687 14.344-4.03 4.031-2.438 7.594-5.813 10.313-9.75a124.125 124.125 0 0 0 7.406-12.188c2.25-4.219 4.781-8.157 7.781-11.907 2.813-3.843 6.656-6.843 11.063-8.812" fill="#F5BD0C"></path>
                  <path d="M282.406 674c4.125-1.594 8.719-1.875 13.031-.844s8.344 3 11.813 5.813c6.656 5.812 12.281 12.75 16.5 20.531 11.25 18.188 22.219 36.563 32.438 55.313a370.55 370.55 0 0 0 24.937 41.437c6.375 8.625 13.688 16.5 20.25 24.938 6.844 8.343 12 17.812 15.188 28.03 3.75 13.407 2.156 27.75-4.22 40.22-4.687 8.812-11.718 16.218-20.343 21.187a51.593 51.593 0 0 1-28.5 7.031 163.06 163.06 0 0 1-45.188-13.968c-28.5-10.407-59.53-11.72-88.78-19.875-10.5-2.813-20.72-6.657-31.313-9.282-4.688-1.031-9.375-2.343-13.875-4.031-4.5-1.688-8.438-4.875-11.063-8.906-1.687-3.188-2.531-6.75-2.344-10.313a33.95 33.95 0 0 1 2.25-10.5c2.532-6.656 6.563-12.75 9.094-19.406 3.563-10.313 4.781-21.188 3.656-32.063-.75-10.78-2.718-21.468-3.28-32.343-.376-4.782-.188-9.657.655-14.438.844-4.781 3.094-9.187 6.47-12.75 3.937-3.562 8.812-5.906 14.062-6.562 5.25-.657 10.5-.657 15.656 0 5.25.656 10.5.843 15.75.75 10.313 0 19.688-6 24.094-15.375a98.75 98.75 0 0 0 5.531-13.032c1.594-4.5 3.75-8.718 6.281-12.75 2.625-4.03 6.375-7.218 10.781-9.093" fill="#F5BD0C"></path>
                </svg>