<svg className="icon" viewBox="0 0 1024 1024" xmlns="http://www.w3.org/2000/svg" width="39" height="39">
                  <path d="m444.65 600.125.262.375-37.462 90.487a193.912 193.912 0 0 1-77.813-97.387l96.676-16.388.15.188a16.5 16.5 0 0 1 18.15 22.725zm-31.238-79.838a16.5 16.5 0 0 0 6.488-28.35l.075-.412-73.537-65.775a192.863 192.863 0 0 0-27.375 122.063l94.275-27.188.074-.338zm42.938-74.25a16.5 16.5 0 0 0 26.213-12.637l.374-.188 5.625-98.25a192.9 192.9 0 0 0-112.874 54.076L456.2 446.15l.15-.075zm28.5 103.126 27.112 13.087 27.076-13.013 6.75-29.25-18.75-23.362h-30.15l-18.75 23.362 6.712 29.213zM541.1 433.1a16.5 16.5 0 0 0 26.25 12.6l.3.112 80.025-56.737A194.55 194.55 0 0 0 535.475 335l5.55 98.063.075.037zm407.85 223.875L732.462 926.263a60 60 0 0 1-46.8 22.275l-347.287.112a60 60 0 0 1-46.763-22.35l-216.6-269.25A59.362 59.362 0 0 1 63.5 606.8l77.25-335.813c4.05-17.625 15.937-32.4 32.362-40.237L485.938 81.238a60.225 60.225 0 0 1 51.937 0l312.937 149.437c16.425 7.838 28.313 22.65 32.363 40.238L960.5 606.725a59.041 59.041 0 0 1-11.55 50.25zm-123.338-77.138c-1.575-.375-3.862-.974-5.437-1.275-6.525-1.237-11.812-.937-17.963-1.425-13.124-1.387-23.924-2.512-33.562-5.55-3.937-1.5-6.75-6.187-8.1-8.1l-7.537-2.212a241.875 241.875 0 0 0-3.938-87.45 242.438 242.438 0 0 0-35.1-81.113c1.95-1.762 5.625-4.987 6.638-5.962.3-3.375.037-6.863 3.524-10.575 7.388-6.937 16.65-12.675 27.863-19.575 5.325-3.15 10.238-5.137 15.562-9.075 1.2-.9 2.85-2.325 4.126-3.337 9-7.163 11.062-19.5 4.612-27.6-6.45-8.1-18.975-8.85-27.937-1.688-1.276 1.013-3 2.325-4.163 3.3-5.025 4.35-8.138 8.625-12.375 13.125-9.225 9.375-16.875 17.175-25.238 22.838-3.637 2.1-8.962 1.387-11.362 1.237l-7.125 5.063a245.437 245.437 0 0 0-155.475-75.113l-.45-8.362c-2.437-2.325-5.362-4.313-6.112-9.376-.826-10.05.562-20.887 2.137-33.937.862-6.113 2.288-11.175 2.55-17.813.037-1.5-.038-3.712-.037-5.324 0-11.475-8.4-20.813-18.75-20.813-10.313 0-18.713 9.338-18.713 20.813l.037.525c0 1.537-.074 3.45 0 4.8.225 6.637 1.65 11.7 2.513 17.812 1.575 13.05 2.925 23.888 2.1 33.975a20.437 20.437 0 0 1-6.075 9.675l-.45 7.913A240.9 240.9 0 0 0 335.15 360.35a313.988 313.988 0 0 1-6.75-4.8c-3.375.45-6.75 1.5-11.137-1.088-8.363-5.625-16.013-13.425-25.238-22.8-4.237-4.5-7.313-8.774-12.337-13.087a100.912 100.912 0 0 0-4.163-3.3 22.275 22.275 0 0 0-13.05-4.95 18.038 18.038 0 0 0-14.925 6.6c-6.45 8.1-4.387 20.475 4.613 27.637l.262.188 3.9 3.113c5.325 3.937 10.2 5.962 15.525 9.074 11.213 6.938 20.475 12.675 27.863 19.575 2.85 3.076 3.375 8.476 3.75 10.8l6 5.363a242.325 242.325 0 0 0-38.25 168.975l-7.8 2.25c-2.063 2.7-4.988 6.9-8.063 8.137-9.637 3.038-20.475 4.125-33.562 5.513-6.15.525-11.438.225-18 1.462-1.388.263-3.375.75-4.988 1.125l-.15.076-.262.075c-11.063 2.662-18.15 12.825-15.863 22.8 2.288 10.012 13.088 16.087 24.188 13.687l.262-.037.375-.113 4.838-1.087c6.374-1.725 11.025-4.238 16.8-6.45 12.375-4.426 22.65-8.138 32.625-9.6 4.2-.338 8.625 2.587 10.8 3.787l8.137-1.387a243.75 243.75 0 0 0 108 134.85l-3.375 8.175c1.237 3.15 2.587 7.462 1.65 10.575-3.637 9.45-9.862 19.387-16.95 30.487-3.413 5.1-6.937 9.075-10.05 14.963-.75 1.387-1.687 3.562-2.4 5.025-4.8 10.312-1.275 22.162 7.988 26.624 9.3 4.5 20.85-.262 25.875-10.575v-.074c.75-1.463 1.725-3.375 2.324-4.763 2.626-6.075 3.526-11.288 5.4-17.175 4.95-12.45 7.688-25.5 14.513-33.637 1.875-2.25 4.875-3.076 8.063-3.938l4.237-7.688a241.988 241.988 0 0 0 172.838.45l3.974 7.2c3.225 1.05 6.75 1.575 9.6 5.813 5.1 8.7 8.588 19.013 12.826 31.5 1.874 5.85 2.774 11.063 5.437 17.137.6 1.388 1.613 3.375 2.325 4.838 4.988 10.35 16.575 15.075 25.875 10.575 9.263-4.425 12.787-16.313 7.988-26.625-.75-1.462-1.688-3.6-2.438-5.025-3.112-5.85-6.637-9.787-10.05-14.925-7.125-11.1-12.975-20.288-16.612-29.737-1.5-4.875.262-7.875 1.425-11.025-.675-.825-2.213-5.4-3.113-7.575a243.713 243.713 0 0 0 108-135.826c2.4.376 6.6 1.125 7.988 1.426 2.812-1.875 5.4-4.275 10.5-3.9 9.974 1.462 20.25 5.174 32.624 9.6 5.776 2.25 10.388 4.8 16.8 6.487 1.35.375 3.3.713 4.876 1.05l.337.113.262.037c11.138 2.4 21.9-3.675 24.188-13.688 2.25-9.974-4.8-20.137-15.863-22.8zM677 425.787l-73.125 65.475v.188a16.5 16.5 0 0 0 6.488 28.387l.112.376 94.725 27.3a194.963 194.963 0 0 0-4.05-62.776A195.3 195.3 0 0 0 677 425.75zM526.512 625.475a16.387 16.387 0 0 0-15.15-8.7 16.5 16.5 0 0 0-13.95 8.738h-.075l-47.55 85.95a193.65 193.65 0 0 0 124.725.112l-47.624-86.1h-.375zm70.8-48.488a16.5 16.5 0 0 0-10.124 1.35 16.5 16.5 0 0 0-8.025 21.45l-.113.15 37.875 91.426a193.125 193.125 0 0 0 78.038-98.063l-97.5-16.5-.15.187z" fill="#0092ff"></path>
                </svg>