<svg width="162" height="32" viewBox="0 0 162 32" fill="none" xmlns="http://www.w3.org/2000/svg">
<path d="M4 0.5H158C159.933 0.5 161.5 2.067 161.5 4V28C161.5 29.933 159.933 31.5 158 31.5H4C2.067 31.5 0.5 29.933 0.5 28V4C0.5 2.067 2.067 0.5 4 0.5Z" fill="#F4F9FF" stroke="#D7E3F1"/>
<path d="M32 0H33V32H32V0Z" fill="#D7E3F1"/>
<path d="M49.1019 16.1514C49.1019 13.3144 47.4029 11.5944 45.1069 11.5944C42.8019 11.5944 41.1079 13.3144 41.1079 16.1514C41.1079 18.9854 42.8019 20.7094 45.1079 20.7094C47.4029 20.7094 49.1019 18.9894 49.1019 16.1514ZM47.7759 16.1514C47.7759 18.3134 46.6319 19.4884 45.1069 19.4884C43.5769 19.4884 42.4379 18.3134 42.4379 16.1514C42.4379 13.9904 43.5779 12.8164 45.1079 12.8164C46.6319 12.8164 47.7759 13.9904 47.7759 16.1514ZM50.9109 23.0834H52.2059V19.5534H52.2839C52.5179 19.9774 52.9939 20.7184 54.2079 20.7184C55.8189 20.7184 56.9879 19.4274 56.9879 17.2744C56.9879 15.1164 55.8019 13.8474 54.1949 13.8474C52.9599 13.8474 52.5139 14.6014 52.2839 15.0124H52.1759V13.9334H50.9099L50.9109 23.0834ZM52.1799 17.2614C52.1799 15.8704 52.7859 14.9474 53.9169 14.9474C55.0909 14.9474 55.6809 15.9394 55.6809 17.2614C55.6809 18.5954 55.0739 19.6134 53.9169 19.6134C52.8039 19.6134 52.1799 18.6604 52.1799 17.2614ZM61.5519 20.7224C63.0039 20.7224 64.0309 20.0074 64.3249 18.9244L63.0989 18.7044C62.8649 19.3314 62.3019 19.6524 61.5649 19.6524C60.4559 19.6524 59.7109 18.9324 59.6759 17.6504H64.4069V17.1914C64.4069 14.7874 62.9689 13.8474 61.4609 13.8474C59.6069 13.8474 58.3849 15.2594 58.3849 17.3044C58.3849 19.3714 59.5899 20.7224 61.5519 20.7224ZM59.6809 16.6804C59.7329 15.7364 60.4169 14.9174 61.4699 14.9174C62.4749 14.9174 63.1339 15.6624 63.1379 16.6804H59.6809ZM67.3839 16.6374C67.3839 15.5754 68.0339 14.9694 68.9349 14.9694C69.8149 14.9694 70.3469 15.5454 70.3469 16.5114V20.5884H71.6429V16.3554C71.6429 14.7094 70.7369 13.8474 69.3769 13.8474C68.3769 13.8474 67.7219 14.3104 67.4139 15.0174H67.3319V13.9334H66.0889V20.5884H67.3839V16.6374ZM77.0969 20.5874H78.3919V13.9334H77.0969V20.5874ZM77.7509 12.9074C78.1969 12.9074 78.5699 12.5604 78.5699 12.1354C78.5699 11.7114 78.1969 11.3604 77.7509 11.3604C77.3009 11.3604 76.9319 11.7104 76.9319 12.1354C76.9319 12.5604 77.2999 12.9074 77.7509 12.9074ZM81.6739 16.6374C81.6739 15.5754 82.3239 14.9694 83.2249 14.9694C84.1049 14.9694 84.6379 15.5454 84.6379 16.5114V20.5884H85.9329V16.3554C85.9329 14.7094 85.0269 13.8474 83.6669 13.8474C82.6669 13.8474 82.0119 14.3104 81.7049 15.0174H81.6219V13.9334H80.3799V20.5884H81.6749L81.6739 16.6374ZM96.3299 14.0464H97.6209C97.5819 12.6254 96.3259 11.5944 94.5239 11.5944C92.7429 11.5944 91.3779 12.6124 91.3779 14.1414C91.3779 15.3764 92.2619 16.0994 93.6879 16.4854L94.7359 16.7714C95.6849 17.0224 96.4159 17.3344 96.4159 18.1234C96.4159 18.9894 95.5889 19.5614 94.4499 19.5614C93.4189 19.5614 92.5609 19.1014 92.4829 18.1364H91.1399C91.2269 19.7434 92.4699 20.7364 94.4589 20.7364C96.5429 20.7364 97.7429 19.6394 97.7429 18.1364C97.7429 16.5374 96.3169 15.9184 95.1909 15.6404L94.3239 15.4154C93.6309 15.2374 92.7079 14.9134 92.7129 14.0634C92.7129 13.3094 93.4019 12.7514 94.4929 12.7514C95.5109 12.7514 96.2349 13.2274 96.3299 14.0464ZM102.589 13.9334H101.224V12.3404H99.9289V13.9344H98.9539V14.9744H99.9289V18.9044C99.9239 20.1124 100.847 20.6974 101.869 20.6754C102.281 20.6714 102.558 20.5934 102.71 20.5374L102.476 19.4674C102.389 19.4844 102.229 19.5234 102.021 19.5234C101.601 19.5234 101.224 19.3854 101.224 18.6354V14.9754H102.589V13.9354V13.9334ZM106.202 20.7354C107.303 20.7354 107.922 20.1764 108.169 19.6784H108.221V20.5884H109.486V16.1684C109.486 14.2324 107.961 13.8474 106.904 13.8474C105.7 13.8474 104.591 14.3324 104.157 15.5454L105.375 15.8224C105.565 15.3504 106.051 14.8954 106.921 14.8954C107.757 14.8954 108.186 15.3334 108.186 16.0874V16.1174C108.186 16.5894 107.701 16.5804 106.505 16.7194C105.245 16.8664 103.954 17.1964 103.954 18.7084C103.954 20.0164 104.937 20.7354 106.202 20.7354ZM106.484 19.6954C105.752 19.6954 105.223 19.3664 105.223 18.7254C105.223 18.0324 105.838 17.7854 106.588 17.6854C107.008 17.6294 108.004 17.5164 108.191 17.3304V18.1884C108.191 18.9764 107.563 19.6954 106.484 19.6954ZM114.259 20.7224C115.831 20.7224 116.849 19.7784 116.992 18.4824H115.732C115.567 19.2024 115.008 19.6264 114.267 19.6264C113.171 19.6264 112.465 18.7124 112.465 17.2614C112.465 15.8354 113.184 14.9394 114.267 14.9394C115.09 14.9394 115.593 15.4594 115.732 16.0824H116.992C116.854 14.7394 115.758 13.8474 114.246 13.8474C112.37 13.8474 111.157 15.2594 111.157 17.2914C111.157 19.2974 112.326 20.7224 114.259 20.7224ZM118.622 20.5884H119.917V18.2274L120.562 17.5814L122.824 20.5884H124.414L121.537 16.7884L124.232 13.9334H122.681L120.03 16.7494H119.917V11.7154H118.622V20.5884ZM125.761 20.5884H129.161C131.224 20.5884 132.155 19.5614 132.155 18.2014C132.155 16.8274 131.193 16.0514 130.314 16.0044V15.9184C131.128 15.7104 131.809 15.1554 131.809 14.0464C131.809 12.7334 130.899 11.7164 129.01 11.7164H125.761V20.5884ZM127.099 19.4404V16.5984H129.079C130.154 16.5984 130.825 17.2914 130.825 18.1364C130.825 18.8814 130.318 19.4404 129.032 19.4404H127.099ZM127.099 15.5544V12.8544H128.928C129.989 12.8544 130.496 13.4144 130.496 14.1504C130.496 15.0084 129.794 15.5544 128.893 15.5544H127.099ZM135.178 11.7154H133.883V20.5884H135.178V11.7154ZM137.165 20.5884H138.46V13.9334H137.165V20.5884ZM137.819 12.9074C138.266 12.9074 138.638 12.5604 138.638 12.1354C138.638 11.7114 138.266 11.3604 137.819 11.3604C137.369 11.3604 137 11.7104 137 12.1354C137 12.5604 137.369 12.9074 137.819 12.9074ZM143.553 13.9334H142.189V12.3404H140.893V13.9344H139.919V14.9744H140.893V18.9044C140.889 20.1124 141.812 20.6974 142.834 20.6754C143.246 20.6714 143.523 20.5934 143.675 20.5374L143.441 19.4674C143.354 19.4844 143.194 19.5234 142.986 19.5234C142.566 19.5234 142.189 19.3854 142.189 18.6354V14.9754H143.553V13.9354V13.9334ZM145.092 20.5884H150.434V19.4604H146.846V19.4004L150.312 14.8774V13.9324H145.209V15.0594H148.696V15.1194L145.092 19.6994V20.5884Z" fill="#007EC5"/>
<path d="M10 17.588H15.165L12.127 25L22 14.412H16.835L19.873 7L10 17.588Z" fill="#1374EF"/>
</svg>
